<svg width="100" height="100" viewBox="0 0 100 100" fill="none" xmlns="http://www.w3.org/2000/svg">
<circle opacity="0.7" cx="50" cy="50" r="50" fill="#FBD00D"/>
<circle cx="50" cy="50" r="35" fill="#FBD00D"/>
<path d="M57.5 35H42.5C38.3579 35 35 38.3579 35 42.5V57.5C35 61.6421 38.3579 65 42.5 65H57.5C61.6421 65 65 61.6421 65 57.5V42.5C65 38.3579 61.6421 35 57.5 35Z" stroke="black" stroke-width="3" stroke-linecap="round" stroke-linejoin="round"/>
<path d="M55.9351 49.055C56.1202 50.3033 55.907 51.5783 55.3257 52.6985C54.7445 53.8187 53.8248 54.7271 52.6975 55.2945C51.5703 55.8619 50.2928 56.0594 49.0468 55.8589C47.8008 55.6584 46.6497 55.0701 45.7574 54.1777C44.865 53.2853 44.2767 52.1343 44.0762 50.8883C43.8757 49.6423 44.0732 48.3648 44.6406 47.2375C45.208 46.1102 46.1164 45.1906 47.2366 44.6093C48.3568 44.0281 49.6317 43.8148 50.8801 44C52.1535 44.1888 53.3324 44.7822 54.2426 45.6924C55.1529 46.6027 55.7463 47.7816 55.9351 49.055Z" stroke="black" stroke-width="3" stroke-linecap="round" stroke-linejoin="round"/>
<path d="M57.5 41.75H57.515" stroke="black" stroke-width="2" stroke-linecap="round" stroke-linejoin="round"/>
</svg>
