<svg width="99" height="88" viewBox="0 0 99 88" fill="none" xmlns="http://www.w3.org/2000/svg">
<g clip-path="url(#clip0_21_84)">
<path d="M7.5211 34.2193C6.40865 34.2193 5.2962 34.2193 4.18375 34.2193C3.93386 34.2193 3.85324 34.1472 3.82906 33.9148C3.64096 32.2372 3.43943 30.549 3.22447 28.8501C3.00681 26.9267 2.7811 25.0034 2.56345 23.0721C2.36998 21.4052 2.18188 19.7383 1.99916 18.0714L1.451 12.8865C1.25753 11.1956 1.07212 9.50464 0.878648 7.81372C0.685179 6.1228 0.491709 4.43188 0.306301 2.74096C0.225688 1.93958 0.161199 1.13819 0.0160963 0.336807C-2.61265e-05 0.112419 -2.61254e-05 0.000225433 0.322423 0.000225433C1.85406 0.000225433 3.37763 0.000225433 4.9012 0.000225433C5.17529 0.000225433 5.27202 0.07235 5.30427 0.336807C5.44937 1.93958 5.61865 3.54234 5.78794 5.09703C5.90886 6.21897 6.05396 7.3409 6.17488 8.45483C6.38447 10.4022 6.57794 12.3576 6.77947 14.3049C6.90845 15.483 7.04549 16.661 7.18253 17.839C7.38406 19.6582 7.58559 21.4693 7.77906 23.2884C7.8758 24.21 7.95641 25.1396 8.04508 26.0612C8.04508 26.1414 8.04508 26.2456 8.14988 26.2456C8.25468 26.2456 8.2708 26.0933 8.27886 25.9971C8.3756 24.9473 8.46427 23.8975 8.56906 22.8477C8.73566 21.1114 8.91032 19.3724 9.09304 17.6307C9.23009 16.1802 9.36713 14.7377 9.51223 13.2872L9.94754 8.81545L10.3828 4.30366C10.5038 3.00542 10.6247 1.71519 10.7295 0.416945C10.7295 0.07235 10.8826 -0.0398438 11.2454 -0.0318299C12.7125 -0.0318299 14.1797 -0.0318299 15.6468 -0.0318299C15.9532 -0.0318299 16.0096 0.0563223 16.0257 0.344821C16.0821 1.1462 16.195 2.00369 16.2756 2.83713C16.4771 4.96881 16.6787 7.1085 16.8883 9.2482C17.0172 10.5144 17.1785 11.7726 17.2913 13.0307C17.4203 14.4572 17.5654 15.8756 17.7186 17.3021C17.9201 19.1854 18.0894 21.0846 18.2748 22.9759C18.3715 24.0257 18.4683 25.0755 18.5569 26.1253C18.5569 26.2135 18.5569 26.3417 18.6617 26.3497C18.7665 26.3578 18.7988 26.2295 18.8068 26.1253C18.9439 24.771 19.0729 23.4167 19.218 22.0623C19.3872 20.4596 19.5726 18.8007 19.7419 17.1659C19.9435 15.3227 20.1289 13.4795 20.3223 11.6283C20.4594 10.2339 20.6045 8.83148 20.7496 7.42906C20.935 5.59389 21.1526 3.7507 21.3058 1.90752C21.4011 1.3514 21.4523 0.788704 21.459 0.224613C21.459 0.0483085 21.5315 -0.0238161 21.7169 -0.0238161H25.9813C26.1667 -0.0238161 26.2151 0.0322808 26.1909 0.224613C26.0136 1.64306 25.8523 3.06953 25.6911 4.48798C25.4412 6.62767 25.2074 8.75935 24.9656 10.8991C24.7802 12.582 24.5867 14.2649 24.4094 15.9398C24.2723 17.1899 24.1272 18.4401 23.9821 19.6902C23.7994 21.3731 23.6113 23.0614 23.4179 24.755C23.2728 26.0292 23.1277 27.2954 22.9906 28.5696C22.8133 30.2445 22.6359 31.9274 22.4263 33.6023C22.4141 33.6954 22.4141 33.7896 22.4263 33.8827C22.4263 34.1071 22.3457 34.2033 22.1119 34.2033H15.4534C15.2679 34.2033 15.2035 34.1151 15.1873 33.9549C15.0584 32.7368 14.9213 31.5507 14.7923 30.3086C14.7278 29.7316 14.6795 29.1466 14.615 28.5616C14.4376 26.9588 14.2361 25.4362 14.0829 23.8735C13.9459 22.5672 13.8169 21.2609 13.6557 19.9547C13.5428 19.0091 13.4703 18.0634 13.3816 17.1178C13.3816 17.0216 13.3816 16.9094 13.2446 16.9014C13.1075 16.8934 13.0995 17.0056 13.0914 17.1018C13.0269 17.7669 12.9463 18.4321 12.8979 19.0972C12.8576 19.5941 12.777 20.0749 12.7287 20.5718C12.5755 22.1745 12.374 23.7773 12.2047 25.3801C12.0354 26.9828 11.858 28.5856 11.6888 30.2365L11.326 33.7385C11.2776 34.2033 11.2696 34.2113 10.7859 34.2113L7.5211 34.2193Z" fill="#231F20"/>
<path d="M55.6226 23.3525C55.6226 19.9066 55.6226 16.4606 55.6226 13.0147C55.6226 12.6461 55.7354 12.5659 56.0821 12.5659H72.4867C72.7849 12.5659 72.9139 12.638 73.0187 12.9586C73.2692 13.8562 73.7443 14.6761 74.3998 15.3418C75.0553 16.0074 75.8698 16.4971 76.7672 16.7652C77.2347 16.9094 77.2831 17.0937 77.2831 17.4784C77.2831 22.9011 77.2831 28.3265 77.2831 33.7545C77.2831 34.0991 77.1864 34.1793 76.8478 34.1793H56.074C55.7193 34.1793 55.6145 34.0911 55.6145 33.7305C55.6226 30.2685 55.6226 26.8145 55.6226 23.3525Z" fill="#FBD00D"/>
<path d="M47.6339 19.7943C47.7116 19.6379 47.7451 19.4633 47.7306 19.2894V0.472948C47.7306 0.0161585 47.7306 0.0161586 48.2063 0.0161586H52.2369C52.4707 0.0161586 52.5593 0.0161586 52.5593 0.320685C52.5593 11.4973 52.5593 22.674 52.5593 33.8506C52.5593 34.1151 52.511 34.2273 52.2127 34.2192C50.6004 34.2192 48.9882 34.2192 47.376 34.2192C47.1019 34.2192 46.9971 34.1471 46.9245 33.8586C46.5456 32.3841 46.1184 30.9256 45.7234 29.451C45.3284 27.9765 44.9173 26.4618 44.5223 24.9713C44.2159 23.8413 43.8854 22.7114 43.5791 21.5814C43.1922 20.1549 42.773 18.7285 42.4264 17.31C42.0797 15.8916 41.6767 14.5773 41.2978 13.2069C41.0559 12.3174 40.8141 11.4199 40.5884 10.5223C40.551 10.3718 40.4663 10.237 40.3466 10.1376C40.2466 10.2978 40.2066 10.488 40.2337 10.6746C40.2337 18.3785 40.2337 26.0852 40.2337 33.7945C40.2337 34.1311 40.1531 34.2273 39.8065 34.2192C38.4602 34.2192 37.1059 34.2192 35.7758 34.2192C35.4856 34.2192 35.4211 34.1391 35.4211 33.8586C35.4211 22.7033 35.4211 11.5507 35.4211 0.400823C35.4211 0.0882832 35.5098 0.00814471 35.8161 0.0161586H41.8943C42.0878 0.0161586 42.1926 0.0161586 42.2571 0.264588C42.5634 1.46666 42.8939 2.66874 43.2244 3.8628L44.4336 8.27042C44.7883 9.57667 45.1349 10.8909 45.4896 12.2052C45.804 13.3432 46.1265 14.4811 46.4328 15.6271C46.7391 16.7731 47.118 18.1274 47.4485 19.3856C47.4609 19.5391 47.5264 19.6835 47.6339 19.7943V19.7943Z" fill="#231F20"/>
<path d="M1.26563 54.3422C1.26563 48.7325 1.26563 43.211 1.26563 37.6413C1.26563 37.3048 1.37043 37.2407 1.69288 37.2407C4.41758 37.2407 7.13421 37.2407 9.85891 37.2407C11.4894 37.1957 13.1001 37.6037 14.5102 38.4187C15.6202 39.1166 16.4477 40.1804 16.848 41.4239C17.2042 42.4942 17.3865 43.6142 17.3881 44.7416C17.4379 45.8699 17.4029 47.0003 17.2833 48.1234C16.9931 50.199 16.2031 51.9861 14.2281 53.0359C14.1555 53.0359 14.0507 53.0359 14.0507 53.1802C14.0507 53.3244 14.1555 53.3324 14.2442 53.3725C16.3401 54.3021 17.3236 56.0171 17.7267 58.1808C17.8809 59.1075 17.943 60.0469 17.9121 60.9857C17.9592 62.2788 17.9377 63.5735 17.8476 64.8644C17.5251 67.4608 16.4046 69.7929 13.422 70.8587C12.3404 71.2417 11.2005 71.4369 10.0524 71.4357C7.27125 71.4357 4.49013 71.4357 1.709 71.4357C1.34625 71.4357 1.24951 71.3556 1.24951 70.9949C1.2737 65.4494 1.26563 59.8958 1.26563 54.3422ZM6.64248 61.2982C6.64248 62.901 6.64248 64.5679 6.64248 66.2027C6.64248 66.5072 6.73115 66.5873 7.02942 66.5793C7.90003 66.5793 8.7787 66.5793 9.65738 66.5793C10.1631 66.5996 10.6676 66.5178 11.1406 66.3389C11.5667 66.1256 11.9227 65.7959 12.1669 65.3885C12.4111 64.9812 12.5333 64.513 12.5191 64.0389C12.6239 62.6445 12.5191 61.2421 12.5191 59.8397C12.5365 59.2281 12.4604 58.6174 12.2934 58.0286C11.8339 56.554 10.8666 56.1293 9.48809 56.0491C8.68197 56.0091 7.81135 56.0491 6.97299 56.0491C6.69084 56.0491 6.61023 56.1293 6.61023 56.4098C6.65054 58.0286 6.64248 59.6634 6.64248 61.2982V61.2982ZM6.64248 46.6168C6.64248 48.0273 6.64248 49.4457 6.64248 50.8562C6.64248 51.0886 6.69084 51.1927 6.9488 51.1847C7.75493 51.1847 8.60942 51.2248 9.43166 51.1367C9.93231 51.1199 10.4164 50.9545 10.8216 50.6617C11.2268 50.3689 11.5345 49.9621 11.7049 49.4938C12.2208 48.0914 12.0193 46.6168 12.0032 45.1663C12.0025 44.7546 11.9455 44.3448 11.8339 43.9482C11.7467 43.4953 11.5197 43.0806 11.1846 42.7618C10.8494 42.443 10.4227 42.2359 9.9637 42.1692C8.91635 42.0676 7.8632 42.0382 6.81176 42.081C6.62635 42.081 6.63441 42.2092 6.63441 42.3535L6.64248 46.6168Z" fill="#231F20"/>
<path d="M51.4467 54.3258C51.4467 57.3711 51.4467 60.4164 51.4467 63.4696C51.4983 65.2851 51.0225 67.0769 50.0763 68.6305C49.1519 70.0552 47.7065 71.0668 46.0456 71.4514C44.9788 71.7623 43.8669 71.8924 42.7567 71.8361C40.6527 71.6998 38.6777 71.187 37.1541 69.6002C36.2814 68.6507 35.668 67.4947 35.3726 66.2424C35.1056 65.111 34.9864 63.9501 35.0179 62.7885C35.0179 57.0452 35.0179 51.3019 35.0179 45.5587C34.9782 44.0778 35.2358 42.604 35.7756 41.2232C36.1094 40.3592 36.6252 39.576 37.2884 38.9264C37.9516 38.2768 38.7468 37.7757 39.6208 37.4567C41.3641 36.8379 43.2392 36.6805 45.0622 36.9999C46.2817 37.1578 47.4425 37.6149 48.4398 38.3302C49.5236 39.1426 50.3379 40.2591 50.7776 41.5357C51.2412 42.892 51.4595 44.3191 51.4225 45.751C51.4467 48.5799 51.4467 51.4569 51.4467 54.3258ZM40.4512 54.3258C40.4512 57.4272 40.4512 60.5366 40.4512 63.6379C40.4373 64.066 40.4779 64.4942 40.5721 64.9121C40.6413 65.3142 40.8123 65.6921 41.069 66.0103C41.3256 66.3286 41.6595 66.5767 42.0392 66.7313C42.6282 66.9518 43.2667 67.0073 43.8852 66.8915C44.3283 66.8368 44.7462 66.6566 45.0892 66.3724C45.4322 66.0883 45.6858 65.7121 45.8199 65.2888C46.0298 64.6012 46.1171 63.8825 46.0779 63.1651C46.0779 57.3257 46.0779 51.4809 46.0779 45.6308C46.102 45.1957 46.102 44.7596 46.0779 44.3246C46.0265 43.7568 45.8444 43.2084 45.5458 42.7218C44.8284 41.5918 42.9743 41.4556 41.9022 41.9925C41.4424 42.2354 41.0644 42.6071 40.815 43.0615C40.5657 43.516 40.456 44.0331 40.4995 44.5489C40.427 47.8266 40.4512 51.0963 40.4512 54.3659V54.3258Z" fill="#231F20"/>
<path d="M72.0352 54.3182C72.0352 48.7566 72.0352 43.1923 72.0352 37.6254C72.0352 37.3369 72.0997 37.2407 72.406 37.2407C73.9537 37.2407 75.5095 37.2407 77.0573 37.2407C77.3394 37.2407 77.4201 37.3128 77.4201 37.5933C77.3986 42.1612 77.3878 46.7264 77.3878 51.289V51.4332C77.3878 51.5374 77.3878 51.6817 77.4684 51.7137C77.549 51.7458 77.67 51.6256 77.7183 51.5134L79.6853 47.3782C80.6526 45.3374 81.6226 43.2938 82.5954 41.2476C83.1919 39.9975 83.7884 38.7553 84.3769 37.5052C84.4028 37.422 84.4575 37.3506 84.5313 37.3037C84.605 37.2567 84.6931 37.2373 84.78 37.2487C86.3922 37.2487 87.9561 37.2487 89.5442 37.2487C89.8747 37.2487 89.8182 37.3689 89.7134 37.5773L86.6905 43.6919L82.4825 52.2106C82.4407 52.2925 82.419 52.3831 82.419 52.475C82.419 52.5669 82.4407 52.6575 82.4825 52.7395C83.1919 54.5025 83.8959 56.2656 84.5946 58.0286C85.175 59.5032 85.7473 60.9777 86.3277 62.4443C87.0694 64.3195 87.8271 66.1867 88.5687 68.0539C88.9879 69.1118 89.3749 70.1696 89.8182 71.2595C89.9069 71.4678 89.8182 71.4759 89.6651 71.4759H84.5865C84.516 71.4794 84.4466 71.458 84.3905 71.4154C84.3344 71.3729 84.2953 71.312 84.2802 71.2435C83.2967 68.6897 82.3079 66.1333 81.3136 63.5742L79.2822 58.261C79.2822 58.1408 79.2177 57.9725 79.0565 57.9725C78.8953 57.9725 78.9275 58.1488 78.8791 58.245C78.4277 59.0464 78.0005 59.8478 77.5571 60.6892C77.4572 60.8766 77.4073 61.0863 77.412 61.2983C77.412 64.5626 77.412 67.8215 77.412 71.0752C77.412 71.4037 77.3233 71.4839 76.9928 71.4839C75.4558 71.4839 73.9161 71.4839 72.3737 71.4839C72.0916 71.4839 72.0271 71.4118 72.0271 71.1313C72.0432 65.5109 72.0459 59.9065 72.0352 54.3182Z" fill="#231F20"/>
<path d="M53.7121 54.3339C53.7121 51.2646 53.7121 48.1953 53.7121 45.118C53.6576 43.2157 54.1892 41.3423 55.2356 39.7487C56.0744 38.5539 57.3012 37.6823 58.71 37.2804C60.3909 36.7733 62.1724 36.6907 63.8934 37.04C65.0927 37.2149 66.2199 37.7162 67.1503 38.4884C68.0808 39.2607 68.7782 40.2738 69.1654 41.4156C69.5865 42.5998 69.8045 43.8459 69.8103 45.1019C69.8103 46.1998 69.8103 47.2977 69.8103 48.3876C69.8103 48.6681 69.7217 48.7563 69.4476 48.7563C67.9804 48.7563 66.5133 48.7563 65.0462 48.7563C64.764 48.7563 64.7076 48.6441 64.7156 48.3956C64.7156 47.2016 64.7156 45.9915 64.7156 44.7974C64.7371 44.1007 64.5611 43.412 64.2078 42.81C64.0332 42.5287 63.7981 42.2893 63.5193 42.1092C63.2405 41.929 62.925 41.8126 62.5955 41.7682C62.0007 41.6634 61.3891 41.7047 60.814 41.8884C60.3743 42.0409 59.9883 42.3164 59.7023 42.6818C59.4163 43.0471 59.2425 43.4868 59.2018 43.948C59.0941 44.5966 59.0509 45.2543 59.0728 45.9113C59.0728 51.7374 59.0728 57.5635 59.0728 63.3815C59.0548 63.9826 59.131 64.5828 59.2985 65.1606C59.4093 65.5962 59.6491 65.9888 59.9868 66.2874C60.3246 66.586 60.7447 66.777 61.1929 66.8355C61.6627 66.9585 62.1556 66.9659 62.629 66.857C63.1023 66.748 63.5418 66.5261 63.9095 66.2104C64.3442 65.7679 64.6045 65.1849 64.6431 64.5676C64.8204 62.8606 64.6834 61.1376 64.7237 59.4227C64.7318 59.2705 64.7318 59.118 64.7237 58.9659C64.7237 58.7896 64.7882 58.7094 64.9736 58.7094H69.5685C69.77 58.7094 69.8345 58.8056 69.8265 58.9979C69.8265 60.6007 69.8748 62.2676 69.8265 63.9024C69.8286 65.5963 69.366 67.2588 68.4883 68.7107C67.7165 69.9186 66.5535 70.8288 65.1913 71.2912C63.9231 71.7512 62.5721 71.9423 61.2251 71.8522C59.5171 71.8139 57.8623 71.2544 56.4851 70.2494C55.5653 69.4993 54.8617 68.5205 54.4456 67.4125C53.9217 65.9755 53.6782 64.4524 53.7282 62.9247L53.7121 54.3339Z" fill="#231F20"/>
<path d="M19.8467 54.294C19.8467 48.7431 19.8467 43.1895 19.8467 37.6332C19.8467 37.3207 19.9434 37.2485 20.2497 37.2485C21.7733 37.2485 23.3049 37.2485 24.8285 37.2485C25.1429 37.2485 25.2316 37.3367 25.2316 37.6412C25.2316 47.1296 25.2316 56.6126 25.2316 66.0904C25.2316 66.5712 25.2316 66.5712 25.7153 66.5712C28.3916 66.5712 31.0679 66.5712 33.7765 66.5712C34.0989 66.5712 34.1796 66.6754 34.1796 66.9799C34.1796 68.3422 34.1796 69.7046 34.1796 71.0669C34.1796 71.3635 34.0989 71.4516 33.8007 71.4516C29.3025 71.4516 24.8043 71.4516 20.3062 71.4516C19.9676 71.4516 19.895 71.3554 19.895 71.0349C19.8682 65.4519 19.8521 59.8716 19.8467 54.294Z" fill="#231F20"/>
<path d="M89.915 23.3684C89.915 26.8304 89.915 30.2843 89.915 33.7864C89.915 34.131 89.8102 34.2191 89.4716 34.2191H80.0722C79.782 34.2191 79.6853 34.155 79.6853 33.8505C79.6853 28.3476 79.6853 22.8421 79.6853 17.334C79.6853 17.0134 79.7982 16.9333 80.1125 16.8291C80.9665 16.5799 81.7491 16.1335 82.3963 15.5262C83.0436 14.919 83.5372 14.1681 83.8368 13.335C83.9351 13.1603 83.993 12.9659 84.0061 12.7661C84.0061 12.5898 84.1432 12.5737 84.2802 12.5737H89.6812C89.9876 12.5737 89.9392 12.7821 89.9392 12.9664V23.3844L89.915 23.3684Z" fill="#FBD00D"/>
<path d="M66.4488 0C69.9312 0 73.4056 0 76.8881 0C77.2025 0 77.2831 0.0801384 77.2831 0.392678C77.2831 1.99545 77.2831 3.59821 77.2831 5.1529C77.2831 5.86613 77.2831 5.8501 76.614 6.05846C75.9384 6.27401 75.3122 6.61997 74.7714 7.07653C74.2305 7.53308 73.7856 8.09126 73.4621 8.71906C73.2323 9.10338 73.0688 9.52323 72.9784 9.96121C72.9723 10.0193 72.9436 10.0728 72.8984 10.1102C72.8532 10.1476 72.7952 10.166 72.7366 10.1616H72.4464C66.997 10.1616 61.5395 10.1616 56.082 10.1616C55.7193 10.1616 55.6226 10.0654 55.6226 9.70476C55.6226 6.6221 55.6226 3.5341 55.6226 0.440761C55.6226 0.10418 55.7032 0 56.0498 0C59.5081 0 62.9825 0 66.4488 0Z" fill="#FBD00D"/>
<path d="M27.9482 17.0855C27.9482 11.5346 27.9482 5.981 27.9482 0.424734C27.9482 0.0801384 28.045 0 28.3836 0.00801384C29.891 0 31.4388 0 32.914 0C33.2122 0 33.317 0 33.317 0.376651C33.317 11.5052 33.317 22.6338 33.317 33.7623C33.317 34.1069 33.2284 34.2031 32.8817 34.2031C31.3582 34.2031 29.8265 34.2031 28.3029 34.2031C28.0692 34.2031 27.9402 34.2031 27.9402 33.8825C27.9402 28.2889 27.9402 22.6792 27.9402 17.0535L27.9482 17.0855Z" fill="#231F20"/>
<path d="M84.8284 0.000402684C86.4407 0.000402684 87.9965 0.000402684 89.5846 0.000402684C89.8587 0.000402684 89.9231 0.0805411 89.9151 0.336984C89.9151 3.49444 89.9151 6.64655 89.9151 9.79332C89.9151 10.0978 89.8264 10.178 89.5362 10.17H84.3528C84.1352 10.17 84.0465 10.1219 83.974 9.88948C83.7298 9.02919 83.2883 8.23694 82.684 7.57503C82.0797 6.91312 81.3292 6.39961 80.4915 6.07489H80.419C80.1852 5.97873 79.8466 6.02681 79.7337 5.81044C79.6744 5.54657 79.6744 5.27292 79.7337 5.00905C79.7337 3.46238 79.7337 1.92372 79.7337 0.385067C79.7337 0.0885549 79.7902 -0.015625 80.1207 -0.015625C81.6604 0.000402684 83.2404 0.000402684 84.8284 0.000402684Z" fill="#FBD00D"/>
<path d="M99.0001 3.02951C98.9831 3.79898 98.661 4.53061 98.1038 5.06499C97.5466 5.59937 96.7996 5.8932 96.0255 5.88244C95.2664 5.87188 94.5423 5.56361 94.0109 5.02476C93.4794 4.4859 93.1836 3.76012 93.1879 3.00547C93.1836 2.62684 93.2555 2.25118 93.3995 1.90062C93.5435 1.55007 93.7567 1.23172 94.0264 0.964343C94.2961 0.696967 94.6169 0.485972 94.9699 0.343797C95.323 0.201622 95.7011 0.131143 96.0819 0.136516C96.4648 0.135462 96.844 0.209513 97.198 0.354428C97.552 0.499343 97.8738 0.712272 98.1449 0.981017C98.416 1.24976 98.631 1.56904 98.7778 1.92056C98.9245 2.27207 99.0001 2.64892 99.0001 3.02951V3.02951ZM96.1142 0.513167C95.7635 0.50235 95.4145 0.566038 95.0905 0.699978C94.7665 0.833918 94.475 1.03503 94.2354 1.28988C93.9958 1.54473 93.8137 1.84746 93.7012 2.17785C93.5887 2.50825 93.5484 2.8587 93.5829 3.20582C93.622 3.68727 93.801 4.14705 94.0981 4.52925C94.3952 4.91144 94.7976 5.19958 95.2564 5.35861C95.7152 5.51764 96.2106 5.54072 96.6823 5.42503C97.154 5.30934 97.5818 5.05987 97.9135 4.70697C98.2453 4.35406 98.4667 3.91293 98.5509 3.43722C98.6352 2.96152 98.5785 2.47173 98.3879 2.02744C98.1972 1.58315 97.8809 1.2035 97.4772 0.934664C97.0735 0.665828 96.6 0.519392 96.1142 0.513167V0.513167Z" fill="#231F20"/>
<path d="M94.8967 2.99722C94.8967 2.50838 94.8967 2.01152 94.8967 1.51466C94.8967 1.26623 94.9612 1.12198 95.2675 1.13801C95.7475 1.09525 96.2313 1.14144 96.6944 1.27424C96.8586 1.33893 97.001 1.44854 97.1052 1.59036C97.2093 1.73219 97.2709 1.90043 97.2829 2.07563C97.3243 2.26115 97.3042 2.45501 97.2258 2.6283C97.1474 2.8016 97.0147 2.94506 96.8475 3.03729C96.5815 3.17352 96.5896 3.28572 96.7266 3.49408C96.8637 3.70244 97.1055 4.0871 97.2829 4.39163C97.3393 4.49581 97.5569 4.62403 97.3473 4.73622C97.3087 4.76399 97.2642 4.78265 97.2172 4.79079C97.1702 4.79893 97.122 4.79634 97.0762 4.78321C97.0303 4.77009 96.9881 4.74677 96.9527 4.71503C96.9173 4.68328 96.8896 4.64394 96.8717 4.59999C96.6541 4.23937 96.4122 3.88676 96.1785 3.53415C96.1296 3.44046 96.0608 3.35843 95.9769 3.29373C95.9033 3.25644 95.8218 3.237 95.7391 3.237C95.6565 3.237 95.575 3.25644 95.5013 3.29373C95.3401 3.35784 95.4046 3.51812 95.4046 3.63833C95.4046 3.89477 95.4046 4.15923 95.4046 4.43971C95.4046 4.7202 95.4046 4.83239 95.1305 4.8404C94.8564 4.84842 94.9048 4.62403 94.8967 4.45574V2.99722V2.99722ZM95.3965 2.13974C95.3965 2.84496 95.3965 2.84496 95.9447 2.84496C96.4928 2.84496 96.8072 2.62057 96.7992 2.18782C96.7911 1.75507 96.5332 1.55473 95.8318 1.54671C95.4046 1.54671 95.4046 1.54671 95.3965 2.13974Z" fill="#231F20"/>
<path d="M1.74108 85.58V85.2274L3.22435 85.0751V85.4357C3.22435 86.157 3.59516 86.5897 4.19169 86.5897C4.3193 86.6018 4.44803 86.586 4.56883 86.5434C4.68964 86.5008 4.7996 86.4324 4.89101 86.343C4.98241 86.2537 5.05305 86.1456 5.09796 86.0262C5.14287 85.9068 5.16097 85.7792 5.15098 85.6521C5.15098 85.027 4.90108 84.5783 3.78057 83.5204C2.28924 82.126 1.87006 81.3647 1.87006 80.3149C1.83723 80.0028 1.87258 79.6873 1.97368 79.3901C2.07478 79.0928 2.23925 78.8207 2.45585 78.5925C2.67245 78.3642 2.93608 78.1851 3.22871 78.0675C3.52133 77.9498 3.83607 77.8963 4.15139 77.9107C4.46635 77.8977 4.78046 77.9521 5.07245 78.0702C5.36445 78.1883 5.6275 78.3674 5.84382 78.5954C6.06013 78.8233 6.22466 79.0948 6.32626 79.3915C6.42786 79.6882 6.46417 80.0031 6.43272 80.3149V80.5633L4.98169 80.7236V80.4431C4.98169 79.6417 4.68343 79.2811 4.17557 79.2811C3.66771 79.2811 3.36945 79.6097 3.36945 80.2267C3.36945 80.8438 3.68384 81.3006 4.74792 82.3584C6.19088 83.7929 6.65843 84.5141 6.65843 85.564C6.6709 85.883 6.61687 86.2012 6.49975 86.4985C6.38263 86.7957 6.20494 87.0658 5.97784 87.2915C5.75073 87.5173 5.47913 87.6939 5.18008 87.8104C4.88103 87.9268 4.56099 87.9805 4.24006 87.9681C3.91398 87.9919 3.58652 87.9472 3.27896 87.8369C2.9714 87.7267 2.69064 87.5532 2.45493 87.328C2.21922 87.1027 2.03384 86.8307 1.91085 86.5295C1.78786 86.2284 1.73002 85.9048 1.74108 85.58V85.58Z" fill="#231F20"/>
<path d="M7.73872 85.6202V80.2429C7.716 79.9214 7.76298 79.5988 7.87648 79.2968C7.98998 78.9949 8.16735 78.7207 8.39662 78.4928C8.62588 78.2649 8.90169 78.0886 9.20541 77.9757C9.50912 77.8629 9.83366 77.8162 10.1571 77.8388C10.4805 77.8162 10.8051 77.8629 11.1088 77.9757C11.4125 78.0886 11.6883 78.2649 11.9176 78.4928C12.1468 78.7207 12.3242 78.9949 12.4377 79.2968C12.5512 79.5988 12.5982 79.9214 12.5755 80.2429V85.6202C12.5982 85.9418 12.5512 86.2644 12.4377 86.5663C12.3242 86.8683 12.1468 87.1424 11.9176 87.3704C11.6883 87.5983 11.4125 87.7746 11.1088 87.8874C10.8051 88.0003 10.4805 88.047 10.1571 88.0244C9.83366 88.047 9.50912 88.0003 9.20541 87.8874C8.90169 87.7746 8.62588 87.5983 8.39662 87.3704C8.16735 87.1424 7.98998 86.8683 7.87648 86.5663C7.76298 86.2644 7.716 85.9418 7.73872 85.6202V85.6202ZM11.0519 85.6202V80.2429C11.0638 80.1174 11.0492 79.9908 11.0091 79.8712C10.9689 79.7516 10.9041 79.6416 10.8187 79.5483C10.7333 79.4551 10.6293 79.3806 10.5133 79.3296C10.3973 79.2786 10.2718 79.2523 10.145 79.2523C10.0182 79.2523 9.89272 79.2786 9.77671 79.3296C9.66069 79.3806 9.55667 79.4551 9.4713 79.5483C9.38593 79.6416 9.32109 79.7516 9.28093 79.8712C9.24078 79.9908 9.22619 80.1174 9.23811 80.2429V85.6202C9.22619 85.7458 9.24078 85.8724 9.28093 85.992C9.32109 86.1116 9.38593 86.2216 9.4713 86.3148C9.55667 86.4081 9.66069 86.4826 9.77671 86.5336C9.89272 86.5846 10.0182 86.6109 10.145 86.6109C10.2718 86.6109 10.3973 86.5846 10.5133 86.5336C10.6293 86.4826 10.7333 86.4081 10.8187 86.3148C10.9041 86.2216 10.9689 86.1116 11.0091 85.992C11.0492 85.8724 11.0638 85.7458 11.0519 85.6202V85.6202Z" fill="#231F20"/>
<path d="M14.075 77.999H15.5743V86.4536H18.2507V87.8641H14.075V77.999Z" fill="#231F20"/>
<path d="M19.3469 85.6923V77.999H20.8463V85.6923C20.8463 85.9134 20.9346 86.1253 21.0918 86.2816C21.249 86.4379 21.4623 86.5258 21.6846 86.5258C21.907 86.5258 22.1202 86.4379 22.2775 86.2816C22.4347 86.1253 22.523 85.9134 22.523 85.6923V77.999H23.9902V85.6923C24.0088 85.9989 23.962 86.3058 23.8529 86.5932C23.7439 86.8805 23.575 87.1417 23.3573 87.3596C23.1396 87.5775 22.8781 87.7472 22.5898 87.8576C22.3016 87.968 21.9931 88.0167 21.6846 88.0003C21.3745 88.0175 21.0641 87.9697 20.7737 87.86C20.4834 87.7504 20.2194 87.5812 19.999 87.3636C19.7786 87.146 19.6066 86.8848 19.4943 86.5969C19.3819 86.3089 19.3317 86.0008 19.3469 85.6923Z" fill="#231F20"/>
<path d="M25.1189 77.999H29.9073V79.4095H28.295V87.8641H26.7634V79.4095H25.1511L25.1189 77.999Z" fill="#231F20"/>
<path d="M31.0679 77.999H32.5753V87.8641H31.0679V77.999Z" fill="#231F20"/>
<path d="M34.0908 85.6201V80.2428C34.0908 79.6052 34.3456 78.9937 34.7991 78.5428C35.2527 78.0919 35.8678 77.8386 36.5092 77.8386C37.1506 77.8386 37.7657 78.0919 38.2192 78.5428C38.6728 78.9937 38.9276 79.6052 38.9276 80.2428V85.6201C38.9276 86.2577 38.6728 86.8692 38.2192 87.3201C37.7657 87.7709 37.1506 88.0242 36.5092 88.0242C35.8678 88.0242 35.2527 87.7709 34.7991 87.3201C34.3456 86.8692 34.0908 86.2577 34.0908 85.6201V85.6201ZM37.404 85.6201V80.2428C37.4159 80.1172 37.4013 79.9906 37.3612 79.871C37.321 79.7514 37.2562 79.6414 37.1708 79.5482C37.0854 79.4549 36.9814 79.3804 36.8654 79.3294C36.7494 79.2785 36.6239 79.2521 36.4971 79.2521C36.3703 79.2521 36.2448 79.2785 36.1288 79.3294C36.0128 79.3804 35.9088 79.4549 35.8234 79.5482C35.738 79.6414 35.6732 79.7514 35.633 79.871C35.5929 79.9906 35.5783 80.1172 35.5902 80.2428V85.6201C35.5783 85.7456 35.5929 85.8722 35.633 85.9918C35.6732 86.1115 35.738 86.2214 35.8234 86.3147C35.9088 86.4079 36.0128 86.4824 36.1288 86.5334C36.2448 86.5844 36.3703 86.6107 36.4971 86.6107C36.6239 86.6107 36.7494 86.5844 36.8654 86.5334C36.9814 86.4824 37.0854 86.4079 37.1708 86.3147C37.2562 86.2214 37.321 86.1115 37.3612 85.9918C37.4013 85.8722 37.4159 85.7456 37.404 85.6201Z" fill="#231F20"/>
<path d="M40.427 77.999H42.0876L43.9981 84.6185V77.999H45.4733V87.8641H43.8611L41.9183 81.5492V87.8641H40.427V77.999Z" fill="#231F20"/>
<path d="M46.7551 85.58V85.2274L48.1981 85.0751V85.4358C48.1981 86.157 48.5689 86.5897 49.1654 86.5897C49.2927 86.6004 49.4209 86.5836 49.541 86.5405C49.6612 86.4974 49.7706 86.429 49.8617 86.3399C49.9528 86.2509 50.0234 86.1433 50.0688 86.0246C50.1142 85.9059 50.1333 85.7788 50.1247 85.6521C50.1247 85.027 49.8668 84.5783 48.7543 83.5204C47.263 82.126 46.8357 81.3647 46.8357 80.3149C46.8092 80.001 46.8484 79.6851 46.951 79.3871C47.0536 79.0891 47.2173 78.8156 47.4317 78.5837C47.6462 78.3518 47.9067 78.1667 48.1968 78.0401C48.4869 77.9135 48.8002 77.8481 49.1171 77.8481C49.4339 77.8481 49.7473 77.9135 50.0374 78.0401C50.3275 78.1667 50.588 78.3518 50.8024 78.5837C51.0168 78.8156 51.1805 79.0891 51.2831 79.3871C51.3857 79.6851 51.425 80.001 51.3984 80.3149V80.5633L49.9554 80.7236V80.4431C49.9554 79.6417 49.6572 79.2811 49.1493 79.2811C48.6415 79.2811 48.3432 79.6097 48.3432 80.2267C48.3432 80.8438 48.6576 81.3006 49.7217 82.3584C51.1646 83.7929 51.6322 84.5142 51.6322 85.564C51.6322 86.2016 51.3774 86.8131 50.9239 87.264C50.4703 87.7148 49.8552 87.9681 49.2138 87.9681C48.5724 87.9681 47.9573 87.7148 47.5038 87.264C47.0502 86.8131 46.7954 86.2016 46.7954 85.564L46.7551 85.58Z" fill="#231F20"/>
<path d="M55.7354 77.999H57.396L59.3065 84.6185V77.999H60.7817V87.8641H59.1694L57.2347 81.5492V87.8641H55.7354V77.999Z" fill="#231F20"/>
<path d="M62.4263 77.999H63.9257V87.8641H62.4263V77.999Z" fill="#231F20"/>
<path d="M68.7624 81.0682V80.2668C68.7743 80.1413 68.7597 80.0147 68.7196 79.895C68.6794 79.7754 68.6146 79.6655 68.5292 79.5722C68.4438 79.479 68.3398 79.4045 68.2238 79.3535C68.1078 79.3025 67.9824 79.2762 67.8555 79.2762C67.7287 79.2762 67.6032 79.3025 67.4872 79.3535C67.3712 79.4045 67.2672 79.479 67.1818 79.5722C67.0964 79.6655 67.0316 79.7754 66.9914 79.895C66.9513 80.0147 66.9367 80.1413 66.9486 80.2668V85.6441C66.9367 85.7696 66.9513 85.8963 66.9914 86.0159C67.0316 86.1355 67.0964 86.2454 67.1818 86.3387C67.2672 86.432 67.3712 86.5065 67.4872 86.5574C67.6032 86.6084 67.7287 86.6348 67.8555 86.6348C67.9824 86.6348 68.1078 86.6084 68.2238 86.5574C68.3398 86.5065 68.4438 86.432 68.5292 86.3387C68.6146 86.2454 68.6794 86.1355 68.7196 86.0159C68.7597 85.8963 68.7743 85.7696 68.7624 85.6441V83.8971H67.8515V82.4626H70.2698V85.6201C70.2698 86.2577 70.0151 86.8692 69.5615 87.3201C69.108 87.7709 68.4929 88.0242 67.8515 88.0242C67.2101 88.0242 66.595 87.7709 66.1414 87.3201C65.6879 86.8692 65.4331 86.2577 65.4331 85.6201V80.2428C65.4331 79.6052 65.6879 78.9937 66.1414 78.5428C66.595 78.0919 67.2101 77.8386 67.8515 77.8386C68.4929 77.8386 69.108 78.0919 69.5615 78.5428C70.0151 78.9937 70.2698 79.6052 70.2698 80.2428V81.0442L68.7624 81.0682Z" fill="#231F20"/>
<path d="M74.5583 77.999H76.0577V86.4536H78.7421V87.8641H74.5583V77.999Z" fill="#231F20"/>
<path d="M78.5164 77.999H83.3047V79.4095H81.6925V87.8641H80.1608V79.4095H78.5486L78.5164 77.999Z" fill="#231F20"/>
<path d="M84.4656 77.999H86.8195C87.1352 77.9787 87.4517 78.0259 87.7476 78.1374C88.0435 78.2488 88.312 78.422 88.535 78.6452C88.758 78.8684 88.9303 79.1365 89.0404 79.4314C89.1505 79.7263 89.1959 80.0412 89.1733 80.355V85.5079C89.1959 85.8217 89.1505 86.1366 89.0404 86.4316C88.9303 86.7265 88.758 86.9946 88.535 87.2178C88.312 87.441 88.0435 87.6141 87.7476 87.7256C87.4517 87.837 87.1352 87.8842 86.8195 87.864H84.4656V77.999ZM86.7469 86.4536C86.8726 86.474 87.0014 86.4646 87.1227 86.4261C87.244 86.3876 87.3544 86.321 87.4449 86.2319C87.5353 86.1427 87.6032 86.0336 87.643 85.9133C87.6829 85.793 87.6935 85.6651 87.6739 85.54V80.323C87.6935 80.1979 87.6829 80.0699 87.643 79.9497C87.6032 79.8294 87.5353 79.7202 87.4449 79.6311C87.3544 79.5419 87.244 79.4754 87.1227 79.4368C87.0014 79.3983 86.8726 79.3889 86.7469 79.4094H85.9408V86.4536H86.7469Z" fill="#231F20"/>
</g>
<defs>
<clipPath id="clip0_21_84">
<rect width="99" height="88" fill="white"/>
</clipPath>
</defs>
</svg>
