<svg width="100" height="100" viewBox="0 0 100 100" fill="none" xmlns="http://www.w3.org/2000/svg">
<circle opacity="0.7" cx="50" cy="50" r="50" fill="#FBD00D"/>
<circle cx="50" cy="50" r="35" fill="#FBD00D"/>
<path d="M64.9999 57.38V61.88C65.0016 62.2978 64.916 62.7113 64.7487 63.094C64.5813 63.4768 64.3358 63.8204 64.028 64.1028C63.7202 64.3852 63.3568 64.6003 62.961 64.7341C62.5653 64.8679 62.146 64.9176 61.7299 64.88C57.1142 64.3785 52.6804 62.8012 48.7849 60.275C45.1606 57.972 42.0879 54.8993 39.7849 51.275C37.2499 47.3618 35.6723 42.9065 35.1799 38.27C35.1424 37.8552 35.1917 37.4372 35.3247 37.0425C35.4576 36.6478 35.6713 36.2851 35.952 35.9775C36.2328 35.6699 36.5746 35.4241 36.9556 35.2558C37.3366 35.0875 37.7484 35.0004 38.1649 35H42.6649C43.3929 34.9929 44.0986 35.2506 44.6505 35.7253C45.2025 36.2 45.563 36.8592 45.6649 37.58C45.8548 39.0201 46.2071 40.4341 46.7149 41.795C46.9167 42.3319 46.9604 42.9154 46.8408 43.4763C46.7211 44.0373 46.4432 44.5522 46.0399 44.96L44.1349 46.865C46.2702 50.6203 49.3796 53.7297 53.1349 55.865L55.0399 53.96C55.4477 53.5567 55.9626 53.2788 56.5236 53.1592C57.0845 53.0395 57.668 53.0832 58.2049 53.285C59.5658 53.7929 60.9798 54.1451 62.4199 54.335C63.1485 54.4378 63.814 54.8048 64.2897 55.3663C64.7654 55.9277 65.0182 56.6444 64.9999 57.38Z" stroke="black" stroke-width="3" stroke-linecap="round" stroke-linejoin="round"/>
</svg>
