<svg width="99" height="88" fill="none" xmlns="http://www.w3.org/2000/svg"><g clip-path="url(#clip0_21_84)"><path d="M7.521 34.22H4.184c-.25 0-.33-.073-.355-.305a359.16 359.16 0 00-.605-5.065c-.217-1.923-.443-3.847-.66-5.778a790.27 790.27 0 01-.565-5l-.548-5.185c-.193-1.691-.379-3.382-.572-5.073C.685 6.123.492 4.432.306 2.74.226 1.94.161 1.138.016.337 0 .112 0 0 .322 0h4.58c.273 0 .37.072.402.337.145 1.603.315 3.205.484 4.76.12 1.122.266 2.244.387 3.358.21 1.947.403 3.903.604 5.85.13 1.178.266 2.356.404 3.534.201 1.82.403 3.63.596 5.45.097.921.177 1.85.266 2.772 0 .08 0 .185.105.185s.12-.153.129-.249c.097-1.05.185-2.1.29-3.15.167-1.736.341-3.475.524-5.216.137-1.45.274-2.893.42-4.344l.435-4.472.435-4.511c.12-1.299.242-2.589.347-3.887 0-.345.153-.457.515-.449h4.402c.306 0 .363.088.379.377.056.801.169 1.659.25 2.492.201 2.132.403 4.271.612 6.411.13 1.266.29 2.525.403 3.783.13 1.426.274 2.845.428 4.271.201 1.883.37 3.783.556 5.674.097 1.05.193 2.1.282 3.15 0 .087 0 .216.105.224.105.008.137-.12.145-.225.137-1.354.266-2.708.411-4.063.17-1.602.355-3.261.524-4.896.201-1.843.387-3.687.58-5.538.137-1.394.283-2.797.428-4.199.185-1.835.403-3.678.556-5.521.095-.557.146-1.12.153-1.683 0-.177.073-.249.258-.249h4.264c.186 0 .234.056.21.249-.177 1.418-.339 2.845-.5 4.263-.25 2.14-.484 4.271-.725 6.411-.186 1.683-.38 3.366-.557 5.04-.137 1.25-.282 2.501-.427 3.751-.183 1.683-.37 3.371-.564 5.065-.145 1.274-.29 2.54-.427 3.815-.178 1.674-.355 3.357-.565 5.032a1.079 1.079 0 000 .28c0 .225-.08.321-.314.321h-6.659c-.185 0-.25-.088-.266-.248-.129-1.218-.266-2.404-.395-3.646-.064-.577-.112-1.162-.177-1.747-.177-1.603-.379-3.126-.532-4.689-.137-1.306-.266-2.612-.427-3.918-.113-.946-.186-1.892-.274-2.837 0-.096 0-.209-.137-.217-.137-.008-.145.105-.154.2-.064.666-.145 1.331-.193 1.996-.04.497-.121.978-.17 1.475-.152 1.602-.354 3.205-.523 4.808-.17 1.603-.347 3.206-.516 4.857l-.363 3.502c-.048.464-.056.472-.54.472l-3.265.008z" fill="#231F20"/><path d="M55.623 23.352V13.015c0-.369.112-.45.46-.45h16.404c.298 0 .427.073.532.394.25.897.725 1.717 1.38 2.383a5.554 5.554 0 002.368 1.423c.468.144.516.329.516.713v16.276c0 .345-.097.425-.435.425H56.074c-.355 0-.46-.088-.46-.449.009-3.461.009-6.915.009-10.377z" fill="#FBD00D"/><path d="M47.634 19.794a.956.956 0 00.097-.505V.473c0-.457 0-.457.475-.457h4.03c.235 0 .323 0 .323.305v33.53c0 .264-.048.376-.346.368h-4.837c-.274 0-.379-.072-.451-.36-.38-1.475-.807-2.933-1.202-4.408-.395-1.474-.806-2.99-1.2-4.48-.307-1.13-.638-2.26-.944-3.39-.387-1.426-.806-2.852-1.153-4.271-.346-1.418-.75-2.733-1.128-4.103a146.81 146.81 0 01-.71-2.685.729.729 0 00-.241-.384c-.1.16-.14.35-.113.537v23.12c0 .336-.08.432-.428.424h-4.03c-.29 0-.355-.08-.355-.36V.4c0-.313.089-.393.395-.385h6.078c.194 0 .299 0 .363.249.306 1.202.637 2.404.967 3.598l1.21 4.407c.354 1.307.7 2.62 1.056 3.935.314 1.138.636 2.276.943 3.422.306 1.146.685 2.5 1.016 3.759a.664.664 0 00.185.408zM1.266 54.342v-16.7c0-.337.104-.401.427-.401h8.166a8.81 8.81 0 014.651 1.178 5.566 5.566 0 012.338 3.005c.356 1.07.539 2.19.54 3.318.05 1.128.015 2.258-.105 3.381-.29 2.076-1.08 3.863-3.055 4.913-.072 0-.177 0-.177.144s.104.152.193.193c2.096.93 3.08 2.644 3.483 4.808.154.927.216 1.866.185 2.805a36.582 36.582 0 01-.064 3.878c-.323 2.597-1.443 4.929-4.426 5.995a10.064 10.064 0 01-3.37.577H1.71c-.363 0-.46-.08-.46-.441.025-5.546.017-11.1.017-16.653zm5.376 6.956v4.905c0 .304.09.384.387.376h2.628c.506.02 1.01-.061 1.484-.24a2.502 2.502 0 001.026-.95 2.48 2.48 0 00.352-1.35c.105-1.395 0-2.797 0-4.2a6.01 6.01 0 00-.226-1.81c-.46-1.475-1.426-1.9-2.805-1.98-.806-.04-1.677 0-2.515 0-.282 0-.363.08-.363.36.04 1.62.032 3.254.032 4.89zm0-14.681v4.24c0 .232.049.336.307.328.806 0 1.66.04 2.483-.048.5-.017.984-.182 1.39-.475.405-.293.713-.7.883-1.168.516-1.403.314-2.877.298-4.328 0-.411-.058-.821-.17-1.218a2.216 2.216 0 00-.648-1.186 2.239 2.239 0 00-1.221-.593 22.97 22.97 0 00-3.152-.088c-.186 0-.178.128-.178.272l.008 4.264zm44.805 7.709v9.144a9.407 9.407 0 01-1.37 5.16 6.57 6.57 0 01-4.031 2.821 9.954 9.954 0 01-3.29.385c-2.103-.136-4.078-.649-5.602-2.236a7.51 7.51 0 01-1.781-3.358 13.45 13.45 0 01-.355-3.454v-17.23a11.09 11.09 0 01.758-4.335 6.489 6.489 0 011.512-2.297 6.535 6.535 0 012.333-1.47A10.732 10.732 0 0145.062 37a7.44 7.44 0 013.378 1.33 6.758 6.758 0 012.338 3.206c.463 1.356.681 2.783.645 4.215.024 2.829.024 5.706.024 8.575zm-10.996 0v9.312a5.05 5.05 0 00.121 1.274 2.416 2.416 0 001.467 1.82c.59.22 1.228.275 1.846.16a2.336 2.336 0 001.204-.52c.343-.284.597-.66.73-1.083.21-.688.298-1.407.259-2.124V45.631c.024-.435.024-.871 0-1.306a3.703 3.703 0 00-.532-1.603c-.718-1.13-2.572-1.266-3.644-.73a2.649 2.649 0 00-1.403 2.557c-.072 3.278-.048 6.547-.048 9.817v-.04zm31.584-.008V37.625c0-.288.065-.384.371-.384h4.651c.282 0 .363.072.363.352-.021 4.568-.032 9.133-.032 13.696v.144c0 .104 0 .249.08.28.081.033.202-.087.25-.2l1.967-4.135 2.91-6.13c.597-1.25 1.193-2.493 1.782-3.743a.369.369 0 01.403-.256h4.764c.33 0 .274.12.17.328l-3.023 6.115-4.209 8.519a.582.582 0 000 .529c.71 1.762 1.414 3.526 2.113 5.289.58 1.474 1.152 2.949 1.733 4.415.741 1.876 1.5 3.743 2.24 5.61.42 1.058.807 2.116 1.25 3.206.089.208 0 .216-.153.216h-5.079a.3.3 0 01-.306-.233c-.983-2.553-1.972-5.11-2.966-7.669l-2.032-5.313c0-.12-.064-.289-.225-.289-.162 0-.13.177-.178.273a98.743 98.743 0 00-1.322 2.444c-.1.188-.15.397-.145.61v9.776c0 .329-.089.409-.42.409h-4.618c-.282 0-.347-.072-.347-.353.016-5.62.019-11.224.008-16.813zm-18.323.016v-9.216a9.296 9.296 0 011.524-5.37 6.383 6.383 0 013.474-2.468 10.63 10.63 0 015.183-.24c1.2.175 2.327.676 3.257 1.448a6.53 6.53 0 012.015 2.928c.421 1.184.64 2.43.645 3.686v3.286c0 .28-.088.368-.362.368h-4.402c-.282 0-.338-.112-.33-.36v-3.599a3.7 3.7 0 00-.508-1.987 2.242 2.242 0 00-1.612-1.042 3.73 3.73 0 00-1.782.12c-.44.153-.826.428-1.112.794-.286.365-.46.805-.5 1.266a9.96 9.96 0 00-.13 1.963v17.47a5.77 5.77 0 00.226 1.78 2.258 2.258 0 001.895 1.674 3.008 3.008 0 002.717-.625 2.573 2.573 0 00.733-1.642c.177-1.707.04-3.43.08-5.145a4.297 4.297 0 000-.457c0-.176.065-.257.25-.257h4.596c.201 0 .266.097.257.289 0 1.603.049 3.27 0 4.904a9.271 9.271 0 01-1.338 4.809 6.323 6.323 0 01-3.297 2.58 9.729 9.729 0 01-3.966.561 8.36 8.36 0 01-4.74-1.603 6.701 6.701 0 01-2.04-2.837 11.959 11.959 0 01-.717-4.487l-.016-8.591zm-33.865-.04v-16.66c0-.313.096-.386.403-.386h4.578c.315 0 .404.089.404.393v28.45c0 .48 0 .48.483.48h8.061c.323 0 .404.104.404.409v4.087c0 .297-.081.385-.38.385H20.307c-.338 0-.411-.097-.411-.417-.027-5.583-.043-11.163-.048-16.741z" fill="#231F20"/><path d="M89.915 23.368v10.418c0 .345-.105.433-.443.433h-9.4c-.29 0-.387-.064-.387-.369V17.334c0-.32.113-.4.427-.505a5.65 5.65 0 002.284-1.303 5.606 5.606 0 001.44-2.191c.1-.175.157-.37.17-.569 0-.176.137-.192.274-.192h5.401c.307 0 .258.208.258.392v10.418l-.024-.016zM66.449 0h10.44c.314 0 .394.08.394.393v4.76c0 .713 0 .697-.669.905a5.401 5.401 0 00-3.152 2.661 4 4 0 00-.484 1.242.224.224 0 01-.241.2H56.082c-.363 0-.46-.096-.46-.456V.44c0-.337.081-.441.428-.441h10.399z" fill="#FBD00D"/><path d="M27.948 17.085V.425c0-.345.097-.425.436-.417C29.89 0 31.439 0 32.914 0c.298 0 .403 0 .403.377v33.385c0 .345-.089.441-.435.441h-4.58c-.233 0-.362 0-.362-.32v-16.83l.008.032z" fill="#231F20"/><path d="M84.828 0h4.757c.274 0 .338.08.33.337v9.456c0 .305-.089.385-.379.377h-5.183c-.218 0-.306-.048-.379-.28a5.77 5.77 0 00-1.29-2.315 5.814 5.814 0 00-2.192-1.5h-.073c-.234-.096-.572-.048-.685-.265a1.827 1.827 0 010-.8V.384c0-.296.056-.4.387-.4C81.66 0 83.24 0 84.828 0z" fill="#FBD00D"/><path d="M99 3.03a2.91 2.91 0 01-.896 2.035 2.944 2.944 0 01-2.079.817 2.886 2.886 0 01-2.014-.857 2.852 2.852 0 01-.823-2.02 2.823 2.823 0 01.838-2.04 2.855 2.855 0 012.056-.828 2.925 2.925 0 012.063.844A2.892 2.892 0 0199 3.03zM96.114.513a2.48 2.48 0 00-1.879.777 2.449 2.449 0 00-.652 1.916c.039.481.218.941.515 1.323.297.382.7.67 1.158.83a2.521 2.521 0 002.657-.652 2.486 2.486 0 00.475-2.68 2.496 2.496 0 00-.91-1.092 2.517 2.517 0 00-1.364-.422z" fill="#231F20"/><path d="M94.897 2.997V1.515c0-.249.064-.393.37-.377.48-.043.964.003 1.427.136a.935.935 0 01.589.802.877.877 0 01-.436.961c-.265.137-.257.249-.12.457.137.208.379.593.556.898.056.104.274.232.064.344a.315.315 0 01-.475-.136c-.218-.36-.46-.713-.694-1.066a.73.73 0 00-.201-.24.526.526 0 00-.476 0c-.16.064-.096.224-.096.344v.802c0 .28 0 .392-.275.4-.274.008-.225-.216-.233-.384V2.997zm.5-.857c0 .705 0 .705.548.705s.862-.224.854-.657c-.008-.433-.266-.633-.967-.641-.427 0-.427 0-.435.593zM1.741 85.58v-.353l1.483-.152v.36c0 .722.371 1.155.968 1.155a.883.883 0 00.906-.564.869.869 0 00.053-.374c0-.625-.25-1.074-1.37-2.132-1.492-1.394-1.91-2.155-1.91-3.205a2.167 2.167 0 01.585-1.722 2.192 2.192 0 011.695-.682 2.213 2.213 0 011.693.684 2.184 2.184 0 01.589 1.72v.248l-1.451.16v-.28c0-.801-.299-1.162-.806-1.162-.508 0-.807.329-.807.946s.315 1.074 1.379 2.131c1.443 1.435 1.91 2.156 1.91 3.206a2.304 2.304 0 01-.68 1.728 2.332 2.332 0 01-1.738.676 2.342 2.342 0 01-1.785-.64 2.316 2.316 0 01-.714-1.748zm5.998.04v-5.377a2.24 2.24 0 01.658-1.75 2.268 2.268 0 011.76-.654 2.278 2.278 0 011.76.654 2.251 2.251 0 01.659 1.75v5.377a2.24 2.24 0 01-.658 1.75 2.267 2.267 0 01-1.76.654 2.276 2.276 0 01-1.761-.654 2.25 2.25 0 01-.658-1.75zm3.313 0v-5.377a.901.901 0 00-.539-.913.915.915 0 00-1.232.541.9.9 0 00-.043.372v5.377a.9.9 0 00.539.914.915.915 0 001.232-.542.902.902 0 00.043-.372zm3.023-7.621h1.5v8.455h2.676v1.41h-4.176V78zm5.272 7.693V78h1.5v7.693a.83.83 0 00.245.59.841.841 0 001.431-.59V78h1.467v7.693a2.168 2.168 0 01-.633 1.668 2.194 2.194 0 01-1.672.64 2.229 2.229 0 01-1.686-.636 2.202 2.202 0 01-.652-1.672zm5.772-7.693h4.788v1.41h-1.612v8.455h-1.532V79.41h-1.612L25.12 78zm5.949 0h1.507v9.865h-1.507V78zm3.022 7.621v-5.377c0-.638.256-1.25.71-1.7a2.426 2.426 0 013.42 0c.453.45.708 1.062.708 1.7v5.377c0 .638-.255 1.25-.709 1.7a2.426 2.426 0 01-3.42 0 2.397 2.397 0 01-.708-1.7zm3.314 0v-5.377a.902.902 0 00-.539-.914.917.917 0 00-1.042.22.904.904 0 00-.233.694v5.377a.901.901 0 00.539.913.915.915 0 001.232-.541.901.901 0 00.043-.372zm3.023-7.621h1.66l1.911 6.62v-6.62h1.475v9.865h-1.612l-1.943-6.315v6.315h-1.491V78zm6.328 7.581v-.353l1.443-.152v.36c0 .722.37 1.155.967 1.155a.891.891 0 00.904-.565.877.877 0 00.056-.373c0-.625-.258-1.074-1.37-2.132-1.492-1.394-1.92-2.155-1.92-3.205a2.264 2.264 0 01.597-1.731 2.29 2.29 0 011.685-.736 2.301 2.301 0 011.685.736 2.274 2.274 0 01.596 1.73v.25l-1.443.16v-.28c0-.802-.298-1.163-.806-1.163s-.806.329-.806.946.315 1.074 1.379 2.131c1.443 1.435 1.91 2.156 1.91 3.206 0 .638-.255 1.25-.708 1.7a2.426 2.426 0 01-3.42 0 2.397 2.397 0 01-.709-1.7l-.04.016zm8.98-7.581h1.661l1.91 6.62v-6.62h1.476v9.865h-1.613l-1.934-6.315v6.315h-1.5V78zm6.691 0h1.5v9.865h-1.5V78zm6.336 3.069v-.801a.902.902 0 00-.538-.913.915.915 0 00-1.233.541.902.902 0 00-.042.372v5.377a.902.902 0 00.538.913.915.915 0 001.233-.541.902.902 0 00.042-.372v-1.747h-.91v-1.434h2.418v3.157c0 .638-.255 1.25-.709 1.7a2.426 2.426 0 01-3.42 0 2.397 2.397 0 01-.708-1.7v-5.377c0-.638.255-1.25.708-1.7a2.426 2.426 0 013.42 0c.454.45.709 1.062.709 1.7v.801l-1.508.024zm5.796-3.069h1.5v8.455h2.684v1.41h-4.184V78zm3.958 0h4.789v1.41h-1.613v8.455h-1.531V79.41h-1.612L78.516 78zm5.95 0h2.354a2.227 2.227 0 011.715.646 2.202 2.202 0 01.638 1.71v5.153a2.191 2.191 0 01-.638 1.71 2.219 2.219 0 01-1.715.646h-2.354v-9.865zm2.28 8.455a.812.812 0 00.699-.222.801.801 0 00.229-.692v-5.217a.795.795 0 00-.23-.692.808.808 0 00-.697-.222h-.806v7.045h.806z" fill="#231F20"/></g><defs><clipPath id="clip0_21_84"><path fill="#fff" d="M0 0h99v88H0z"/></clipPath></defs></svg>