<svg width="100" height="100" fill="none" xmlns="http://www.w3.org/2000/svg"><circle opacity=".7" cx="50" cy="50" r="50" fill="#FBD00D"/><circle cx="50" cy="50" r="35" fill="#FBD00D"/><path d="M65 57.38v4.5a3 3 0 01-3.27 3 29.685 29.685 0 01-12.945-4.605 29.249 29.249 0 01-9-9A29.686 29.686 0 0135.18 38.27 2.998 2.998 0 0138.165 35h4.5a3 3 0 013 2.58 19.26 19.26 0 001.05 4.215 3 3 0 01-.675 3.165l-1.905 1.905a24 24 0 009 9l1.905-1.905a3 3 0 013.165-.675c1.36.508 2.775.86 4.215 1.05A3 3 0 0165 57.38z" stroke="#000" stroke-width="3" stroke-linecap="round" stroke-linejoin="round"/></svg>